Coordinates
version=1
nRows=7
nColumns=46
inDegrees=yes

Units are S.I. units (second, meters, Newtons, ...)
Angles are in degrees.

endheader
time	pelvis_tilt	pelvis_list	pelvis_rotation	pelvis_tx	pelvis_ty	pelvis_tz	bb_angle	bb_tx	bb_ty	bb_tz	hip_flexion_r	hip_adduction_r	hip_rotation_r	knee_angle_r	knee_angle_r_beta	ankle_angle_r	subtalar_angle_r	mtp_angle_r	crank_angle_r	hip_flexion_l	hip_adduction_l	hip_rotation_l	knee_angle_l	knee_angle_l_beta	ankle_angle_l	subtalar_angle_l	mtp_angle_l	crank_angle_l	lumbar_extension	lumbar_bending	lumbar_rotation	arm_flex_r	arm_add_r	arm_rot_r	elbow_flex_r	pro_sup_r	wrist_flex_r	wrist_dev_r	arm_flex_l	arm_add_l	arm_rot_l	elbow_flex_l	pro_sup_l	wrist_flex_l	wrist_dev_l
      2.50000000	    -25.19722758	     -5.19689630	     -5.15292511	      0.08392321	      1.02055808	     -0.22196162	      0.00000000	      0.50000000	      0.00000000	      0.25000000	     99.56944880	     -4.85632341	     -0.67851580	    114.67380237	      2.00143542	      7.28567491	      0.22119031	      0.00000000	      0.00000000	     44.84959256	    -13.10404788	     -8.37078339	     21.72862255	      0.37923601	    -26.71635327	     -0.18213204	      0.00000000	      0.00000000	    -49.59702856	      5.67193699	      6.57389503	     89.54544897	     -5.12077699	     34.61189985	     50.36417657	     34.70130410	      0.00000000	      0.00000000	     86.42670291	    -22.93162867	     37.57095169	     54.78416975	     39.81009967	      0.00000000	      0.00000000
      2.50500000	    -25.03557751	     -5.17895966	     -5.33182244	      0.08481839	      1.02206949	     -0.22148295	      0.00000000	      0.50000000	      0.00000000	      0.25000000	     99.60312423	     -4.22164965	     -0.64697764	    114.25651432	      1.99415237	      8.22213928	     -0.23081877	      0.00000000	      0.00000000	     44.47418964	    -13.30109640	     -8.74477430	     22.26611519	      0.38861702	    -27.66580256	     -0.73810619	      0.00000000	      0.00000000	    -49.81067230	      5.62954011	      6.76038438	     89.54746620	     -4.86433232	     34.67005910	     50.15681690	     34.66285026	      0.00000000	      0.00000000	     86.45083837	    -23.01068316	     37.82960472	     54.41873145	     39.80484134	      0.00000000	      0.00000000
      2.51000000	    -24.97680678	     -5.03123770	     -5.35573904	      0.08537330	      1.02353764	     -0.22144862	      0.00000000	      0.50000000	      0.00000000	      0.25000000	     99.73742302	     -3.83433235	     -0.45467754	    113.65135446	      1.98359033	      8.47597893	     -0.35286179	      0.00000000	      0.00000000	     44.17952024	    -13.15397626	     -8.53421974	     22.67371235	      0.39573093	    -27.97038634	     -0.79401180	      0.00000000	      0.00000000	    -49.92339188	      5.61192560	      6.78774232	     89.53936117	     -4.81457403	     34.66968139	     50.12410017	     34.65580236	      0.00000000	      0.00000000	     86.38708858	    -23.00632636	     37.90105911	     54.32456298	     39.80161172	      0.00000000	      0.00000000
      2.51500000	    -24.93505902	     -5.04202359	     -5.70518619	      0.08573317	      1.02476162	     -0.22043679	      0.00000000	      0.50000000	      0.00000000	      0.25000000	     99.77288907	     -2.95671284	     -0.54619188	    113.02858401	      1.97272094	      9.45333225	     -0.99406688	      0.00000000	      0.00000000	     44.19734422	    -13.49806662	     -8.72040117	     23.65448021	      0.41284856	    -29.15803424	     -2.20006580	      0.00000000	      0.00000000	    -49.84864998	      5.44554870	      7.18196692	     89.55076620	     -4.17501410	     34.25863477	     48.64481490	     34.32586405	      0.00000000	      0.00000000	     87.10690858	    -22.65376715	     39.86533037	     51.68072859	     39.88369541	      0.00000000	      0.00000000
      2.52000000	    -24.91257700	     -4.98754041	     -5.88647996	      0.08592792	      1.02596759	     -0.21975087	      0.00000000	      0.50000000	      0.00000000	      0.25000000	     99.77776606	     -2.30431049	     -0.54608672	    112.29326489	      1.95988720	     10.19075042	     -1.47193995	      0.00000000	      0.00000000	     44.29992256	    -13.64117560	     -8.63781561	     24.68041481	      0.43075450	    -29.82148427	     -2.94983696	      0.00000000	      0.00000000	    -49.93153083	      5.33235962	      7.38654960	     89.54740053	     -4.08292814	     34.19810883	     48.61269150	     34.31071401	      0.00000000	      0.00000000	     87.14387649	    -22.58389445	     39.96501715	     51.48747643	     39.92009110	      0.00000000	      0.00000000
      2.52500000	    -24.90261414	     -4.87586615	     -6.05118911	      0.08594591	      1.02709126	     -0.21909420	      0.00000000	      0.50000000	      0.00000000	      0.25000000	     99.71071294	     -1.57886781	     -0.45216518	    111.46950175	      1.94550982	     11.11855370	     -2.07605805	      0.00000000	      0.00000000	     44.50883695	    -13.72129141	     -8.47662889	     25.82174414	      0.45067445	    -30.47983498	     -3.57752889	      0.00000000	      0.00000000	    -49.97649219	      5.16384219	      7.48124542	     89.54205128	     -3.95652231	     34.15997339	     48.58039502	     34.29916125	      0.00000000	      0.00000000	     87.22469263	    -22.49896788	     40.01684055	     51.28273940	     39.92188842	      0.00000000	      0.00000000
      2.53000000	    -24.99725395	     -4.93083039	     -6.27183843	      0.08572107	      1.02805195	     -0.21829765	      0.00000000	      0.50000000	      0.00000000	      0.25000000	     99.64870203	     -0.87726734	     -0.62747442	    110.47432472	      1.92814071	     11.71057563	     -2.91109290	      0.00000000	      0.00000000	     44.98887802	    -13.98648219	     -8.12777538	     27.18847274	      0.47452837	    -31.17938928	     -4.54922045	      0.00000000	      0.00000000	    -49.85339434	      5.11415158	      7.98909633	     89.54500139	     -3.71023814	     33.57671028	     47.90487136	     34.19964219	      0.00000000	      0.00000000	     87.42163355	    -21.71937186	     40.28864355	     49.60670054	     39.95614221	      0.00000000	      0.00000000
